<svg xmlns="http://www.w3.org/2000/svg" viewBox="0 0 512 512" width="512" height="512">
  <rect width="512" height="512" rx="96" fill="#1a1a1a"/>
  <g transform="translate(256 256) scale(0.86) translate(-628.5 -606.7)">
    <path fill="#F26321" d="m591.52 426.65c-0.47 0.38-0.79 51.8-0.7 114.27 0.08 66.07 0.52 113.16 1.03 112.58 0.49-0.55 5.04-8.87 10.12-18.5 5.08-9.62 13.58-25.06 18.88-34.31 5.31-9.24 12.69-20.94 16.41-26l6.76-9.19-0.52-139c-39.63-0.41-51.52-0.23-51.98 0.15zm142.98 121.73c-3.85 0.73-10.83 2.58-15.5 4.11-4.67 1.54-12.77 4.94-18 7.56-5.22 2.62-12.65 6.98-16.5 9.69-3.85 2.71-10.6 8.52-15 12.92-4.4 4.39-11.04 12.23-14.76 17.41-3.72 5.19-9.64 15.28-13.15 22.43-3.52 7.15-9.64 21.55-13.6 32-3.96 10.45-9.35 23.5-11.97 29-2.63 5.5-7.64 13.79-11.15 18.42-3.5 4.64-9.52 10.97-13.37 14.07-3.85 3.11-9.47 7.03-12.5 8.72-3.02 1.69-8.76 4.25-12.75 5.68-3.99 1.44-11.41 3.15-16.5 3.8-7.16 0.92-11.34 0.92-18.5 0-5.09-0.65-12.96-2.53-17.5-4.17-4.54-1.63-11.17-4.84-14.75-7.12-3.58-2.29-8.7-6.01-11.39-8.28-2.69-2.27-7.03-6.82-9.64-10.12-2.61-3.3-6.57-9.6-8.8-14-2.23-4.4-4.97-11.83-6.1-16.5-1.13-4.67-2.06-9.51-2.06-10.75l-0.01-2.25h-53c0.89 10.46 1.78 16.65 2.55 20.5 0.77 3.85 2.56 10.6 3.99 15 1.42 4.4 4.09 11.15 5.93 15 1.85 3.85 6.15 11.28 9.57 16.5 3.89 5.95 10 13.25 16.34 19.54 5.56 5.52 13.5 12.33 17.62 15.14 4.13 2.81 11.55 7.14 16.5 9.64 4.95 2.5 13.28 5.95 18.5 7.67 5.23 1.72 13.78 3.77 19 4.56 5.23 0.79 15.35 1.45 22.5 1.45 7.15 0.01 16.94-0.66 21.75-1.49 4.81-0.83 12.46-2.69 17-4.14 4.54-1.45 11.63-4.17 15.75-6.06 4.13-1.88 9.75-4.84 12.5-6.58 2.75-1.73 8.38-5.7 12.5-8.82 4.13-3.12 10.68-8.99 14.56-13.04 3.88-4.05 9.12-10.29 11.65-13.87 2.52-3.58 6.15-9.2 8.07-12.5 1.92-3.3 5.3-10.27 7.52-15.5 2.22-5.23 6.72-18.05 10.02-28.5 3.29-10.45 7.42-22.15 9.17-26 1.76-3.85 5.24-10.15 7.74-14 2.51-3.85 7.53-10.08 11.16-13.84 3.64-3.76 9.53-8.8 13.11-11.19 3.58-2.4 9.42-5.57 13-7.05 3.58-1.48 8.75-3.39 11.5-4.24 4.13-1.29 13.87-1.65 56.26-2.12l51.26-0.56c-5.2-7.75-9.36-12.87-12.61-16.38-3.25-3.51-9.28-8.92-13.41-12.03-4.12-3.11-11.78-7.76-17-10.34-5.22-2.58-14-5.89-19.5-7.35-8.31-2.21-12.62-2.71-25.5-2.99-10.02-0.22-17.98 0.12-22.5 0.97zm8.5 133.12v21.5c45.25 0 50.99 0.28 50.98 1.25-0.02 0.69-1.34 3.27-2.95 5.75-1.61 2.48-5.09 6.61-7.73 9.19-2.64 2.58-7.5 6.31-10.8 8.29-3.3 1.97-8.92 4.51-12.5 5.63-4.49 1.41-10.8 2.25-20.42 2.72l-13.92 0.67c-2.69 6.2-7.34 17.11-12.06 28.25-4.73 11.14-8.6 20.81-8.6 21.5 0 0.98 5.35 1.11 25.25 0.57 19.38-0.52 27.34-1.13 34.25-2.64 4.95-1.08 12.15-3.16 16-4.62 3.85-1.46 9.92-4.26 13.5-6.21 3.58-1.96 9.42-5.71 13-8.35 3.58-2.63 9.44-7.87 13.02-11.64 3.59-3.77 8.51-9.78 10.94-13.36 2.42-3.58 6.11-10.1 8.19-14.5 2.08-4.4 4.98-12.05 6.45-17 2.42-8.15 2.71-10.87 3.04-28.75l0.36-19.75h-106z"/>
  </g>
</svg>
